<?xml version="1.0" encoding="UTF-8"?>
<svg version="1.1" xmlns="http://www.w3.org/2000/svg" width="634" height="634">
<path d="M0 0 C209.22 0 418.44 0 634 0 C634 209.22 634 418.44 634 634 C424.78 634 215.56 634 0 634 C0 424.78 0 215.56 0 0 Z " fill="#DDA6A4" transform="translate(0,0)"/>
<path d="M0 0 C8.39099655 -0.3820769 16.36310486 1.78536704 22.91796875 7.1484375 C28.76440766 13.03703822 30.94056218 17.84048166 31.91796875 26.1484375 C31.19351563 26.11363281 30.4690625 26.07882813 29.72265625 26.04296875 C21.82500594 25.73358103 21.82500594 25.73358103 14.91796875 29.1484375 C10.68674094 34.14807224 8.1337212 38.46011143 7.91796875 45.1484375 C9.29626068 48.65547737 9.29626068 48.65547737 11.35546875 52.0234375 C14.47529368 57.69172407 15.78199252 61.66825921 14.91796875 68.1484375 C14.58796875 68.8084375 14.25796875 69.4684375 13.91796875 70.1484375 C14.77519531 70.35597656 15.63242187 70.56351562 16.515625 70.77734375 C17.65902344 71.08542969 18.80242187 71.39351563 19.98046875 71.7109375 C21.10582031 72.00097656 22.23117187 72.29101562 23.390625 72.58984375 C32.64875627 76.68064594 36.76035767 85.38825936 41.35546875 93.9609375 C41.99162109 95.08564453 42.62777344 96.21035156 43.28320312 97.36914062 C47.82540034 105.76561904 49.27476659 111.54867097 47.02734375 120.82421875 C46.35445312 122.62439453 46.35445312 122.62439453 45.66796875 124.4609375 C45.41418457 125.14607422 45.16040039 125.83121094 44.89892578 126.53710938 C39.60582769 140.55229956 33.90828897 154.59337882 27.59375 168.17578125 C25.33179204 173.24177094 24.74826763 177.6761994 25.91796875 183.1484375 C27.74175961 186.34470826 30.26493595 188.62558736 32.91796875 191.1484375 C54.14237151 213.1973854 69.43677926 238.25447839 81.91796875 266.1484375 C82.21670898 266.81278809 82.51544922 267.47713867 82.82324219 268.16162109 C88.3062568 280.60107541 96.72267782 301.31504192 93.91796875 315.1484375 C89.8812824 321.68526507 82.10504355 325.57287632 74.9375 327.75 C65.45130193 329.62155165 58.09708139 327.53258973 49.50146484 323.63867188 C41.41419471 320.09564298 34.51046163 320.45686094 26.20703125 323.24609375 C20.01664834 325.68633002 17.37890637 328.7832214 14.1171875 334.30859375 C12.36663974 336.99428755 10.93472108 338.05143665 7.91796875 339.1484375 C-0.39147664 340.47727593 -8.33255231 337.55153087 -15.27685547 333.10083008 C-19.1188527 330.89649177 -22.28491322 330.65087272 -26.73828125 330.64453125 C-27.44424438 330.63511002 -28.15020752 330.62568878 -28.87756348 330.61598206 C-31.11268744 330.58755035 -33.34674205 330.5842452 -35.58203125 330.5859375 C-37.81716321 330.58231139 -40.05152568 330.57259185 -42.28649902 330.54518127 C-44.31392175 330.52087245 -46.34157249 330.51846376 -48.36914062 330.51733398 C-53.31193333 330.02623984 -56.91686103 328.42206704 -61.20703125 325.8984375 C-63.15000687 324.90030739 -63.15000687 324.90030739 -65.51953125 325.8359375 C-66.36515625 325.9390625 -67.21078125 326.0421875 -68.08203125 326.1484375 C-72.27907164 322.73224183 -74.82598952 319.6390252 -75.3828125 314.22265625 C-75.41408625 305.1845426 -74.16986638 296.92788127 -72.08203125 288.1484375 C-71.84678238 287.1416394 -71.84678238 287.1416394 -71.60678101 286.11450195 C-63.55334196 251.81073367 -47.84696053 223.03410252 -24.53466797 196.79394531 C-22.44437555 194.42611827 -20.40502975 192.02180368 -18.39453125 189.5859375 C-17.79253906 188.86277344 -17.19054687 188.13960937 -16.5703125 187.39453125 C-12.72497597 181.59120184 -12.32562487 175.48701959 -13.49414062 168.78466797 C-14.05635801 166.20344067 -14.68035021 163.64601206 -15.33203125 161.0859375 C-15.67210205 159.71091064 -15.67210205 159.71091064 -16.01904297 158.30810547 C-16.69648051 155.58551966 -17.38783224 152.86679073 -18.08203125 150.1484375 C-18.2737793 149.38321777 -18.46552734 148.61799805 -18.66308594 147.82958984 C-21.31744264 136.05455537 -21.31744264 136.05455537 -27.08203125 125.6484375 C-32.326836 119.09243157 -32.52731078 113.07111122 -32.39453125 104.9609375 C-32.39775391 103.99607422 -32.40097656 103.03121094 -32.40429688 102.03710938 C-32.36789579 97.0700158 -32.01005575 92.3839079 -31.06665039 87.50439453 C-30.02234206 81.43316393 -29.88553295 75.64063538 -30.02734375 69.49609375 C-30.05263046 67.31576149 -30.0773528 65.13542261 -30.1015625 62.95507812 C-30.15108995 59.58059131 -30.20711978 56.2064659 -30.27392578 52.83227539 C-30.59771296 35.32099788 -30.67387451 20.74139904 -18.08203125 7.1484375 C-12.27925301 2.09343996 -7.62474888 0.54360311 0 0 Z " fill="#9A273B" transform="translate(307.08203125,36.8515625)"/>
<path d="M0 0 C8.0784056 3.45503807 14.47638491 4.39497629 23.3125 3.5 C23.69728516 4.50353516 23.69728516 4.50353516 24.08984375 5.52734375 C26.3693315 11.24525074 28.85627438 16.566727 31.88745117 21.91772461 C38.92040911 34.46161349 38.92040911 34.46161349 38.1340332 40.02001953 C34.70131231 50.38245009 22.76295907 59.1936591 15.12890625 66.60546875 C9.05007977 72.57717934 3.61199508 78.83281204 -1.6875 85.5 C-2.84466211 86.90199457 -4.0057774 88.30074113 -5.171875 89.6953125 C-13.27464796 99.43591883 -21.07404011 109.37280889 -28.6875 119.5 C-29.4916333 120.45302002 -29.4916333 120.45302002 -30.31201172 121.42529297 C-31.92075093 123.85182222 -32.15422176 125.31760037 -32.33984375 128.20703125 C-32.40413574 129.17850098 -32.46842773 130.1499707 -32.53466797 131.15087891 C-32.80579754 137.09234133 -33.03028263 143.03193354 -33.19018555 148.97729492 C-33.24943577 151.16665103 -33.31472984 153.35576394 -33.38085938 155.54492188 C-33.59169114 162.7733165 -33.74363522 170.00306766 -33.80078125 177.234375 C-33.81278564 178.49862305 -33.82479004 179.76287109 -33.8371582 181.06542969 C-33.62633524 185.90369621 -32.37871504 190.00384295 -30.6875 194.5 C-30.27839823 195.87111078 -29.88111738 197.24584861 -29.5 198.625 C-29.231875 199.57375 -28.96375 200.5225 -28.6875 201.5 C-32.67312883 205.73473064 -36.98616997 209.07360692 -41.6875 212.5 C-35.7475 215.14 -29.8075 217.78 -23.6875 220.5 C-24.0175 221.49 -24.3475 222.48 -24.6875 223.5 C-30.6875 220.5 -36.6875 217.5 -42.6875 214.5 C-42.6875 218.79 -42.6875 223.08 -42.6875 227.5 C-40.29179729 227.6687539 -37.89596637 227.83506836 -35.5 228 C-34.82646484 228.04769531 -34.15292969 228.09539062 -33.45898438 228.14453125 C-29.86113248 228.39023821 -26.29377694 228.55601984 -22.6875 228.5 C-22.6875 229.16 -22.6875 229.82 -22.6875 230.5 C-25.75212904 231.39385014 -28.49931379 231.63472008 -31.6875 231.625 C-32.533125 231.62757813 -33.37875 231.63015625 -34.25 231.6328125 C-36.53448944 231.50833711 -38.49741574 231.13877457 -40.6875 230.5 C-38.14145403 234.02381687 -38.14145403 234.02381687 -34.6875 236.5 C-32.4802077 236.57092842 -30.27082548 236.58415025 -28.0625 236.5625 C-26.87398438 236.55347656 -25.68546875 236.54445313 -24.4609375 236.53515625 C-23.08808594 236.51775391 -23.08808594 236.51775391 -21.6875 236.5 C-21.3575 237.82 -21.0275 239.14 -20.6875 240.5 C-22.6675 241.16 -24.6475 241.82 -26.6875 242.5 C-26.6875 243.49 -26.6875 244.48 -26.6875 245.5 C-25.429375 245.54125 -24.17125 245.5825 -22.875 245.625 C-22.16730469 245.64820313 -21.45960938 245.67140625 -20.73046875 245.6953125 C-18.37390281 245.63254462 -18.37390281 245.63254462 -15.6875 243.5 C-16.5 245.9375 -16.5 245.9375 -17.6875 248.5 C-25.24716221 251.0198874 -33.41754108 249.3960656 -40.6875 246.5 C-44.61924669 243.39321802 -45.06992277 239.25292282 -45.6875 234.5 C-45.95926899 230.6907347 -46.14154591 226.87738178 -46.25830078 223.06030273 C-46.44174615 218.21786925 -47.17178206 214.10827149 -48.6875 209.5 C-50.18733085 212.4996617 -49.92652055 215.61946961 -50.00390625 218.9140625 C-50.02468735 219.64370209 -50.04546844 220.37334167 -50.06687927 221.12509155 C-50.13231917 223.45829763 -50.19123368 225.79161721 -50.25 228.125 C-50.29319053 229.70574095 -50.33680499 231.28647039 -50.38085938 232.8671875 C-50.48799481 236.74467504 -50.58927782 240.62227685 -50.6875 244.5 C-51.3475 244.5 -52.0075 244.5 -52.6875 244.5 C-53.58586083 236.73661922 -53.98196509 228.99566447 -54.25 221.1875 C-54.29318359 220.05376953 -54.33636719 218.92003906 -54.38085938 217.75195312 C-54.50352323 214.3348887 -54.600398 210.91814508 -54.6875 207.5 C-54.72536621 206.30044678 -54.76323242 205.10089355 -54.80224609 203.86499023 C-54.82496582 202.70555908 -54.84768555 201.54612793 -54.87109375 200.3515625 C-54.8961499 199.30693848 -54.92120605 198.26231445 -54.94702148 197.18603516 C-54.66543714 194.27165045 -54.22805362 193.22983951 -52.1875 191.1875 C-51.3625 190.630625 -50.5375 190.07375 -49.6875 189.5 C-49.7390625 190.36238281 -49.790625 191.22476563 -49.84375 192.11328125 C-49.67011145 195.87689687 -48.74444173 198.27520271 -47.1875 201.6875 C-44.6875 207.20833333 -44.6875 207.20833333 -44.6875 210.5 C-43.22449018 209.56981474 -41.76724421 208.63055973 -40.3125 207.6875 C-39.09433594 206.90439453 -39.09433594 206.90439453 -37.8515625 206.10546875 C-35.45399759 204.51562803 -35.45399759 204.51562803 -33.6875 201.5 C-34.698125 201.29375 -35.70875 201.0875 -36.75 200.875 C-41.2889246 199.55307288 -44.72062105 197.18764615 -47.6875 193.5 C-48.77282952 189.49784739 -48.9956203 187.4243609 -47.6875 183.5 C-47.41195595 176.3782462 -48.16441707 169.55023196 -49.125 162.5 C-49.25970703 161.45199219 -49.39441406 160.40398437 -49.53320312 159.32421875 C-49.76019357 154.55172487 -49.76019357 154.55172487 -51.6875 150.5 C-53.3375 153.8 -54.9875 157.1 -56.6875 160.5 C-59.1934375 160.3453125 -59.1934375 160.3453125 -61.75 160.1875 C-62.68972656 160.12949219 -63.62945312 160.07148437 -64.59765625 160.01171875 C-68.35721867 159.38908578 -71.23825536 158.10620256 -74.6875 156.5 C-74.3265625 157.50160156 -73.965625 158.50320313 -73.59375 159.53515625 C-73.12443201 160.8774057 -72.6557139 162.21986501 -72.1875 163.5625 C-71.94902344 164.21927734 -71.71054687 164.87605469 -71.46484375 165.55273438 C-69.93095937 170.00099909 -69.43962572 173.73461699 -69.6875 178.5 C-70.3475 178.5 -71.0075 178.5 -71.6875 178.5 C-72.08582031 176.71142578 -72.08582031 176.71142578 -72.4921875 174.88671875 C-72.84863217 173.32023825 -73.20542097 171.75383602 -73.5625 170.1875 C-73.73652344 169.40181641 -73.91054688 168.61613281 -74.08984375 167.80664062 C-74.26386719 167.04931641 -74.43789063 166.29199219 -74.6171875 165.51171875 C-74.77429199 164.81522217 -74.93139648 164.11872559 -75.09326172 163.40112305 C-75.68263393 161.20265788 -75.68263393 161.20265788 -77.6875 158.5 C-78.89530664 159.51805148 -80.07826888 160.56562666 -81.25 161.625 C-81.91128906 162.20507812 -82.57257813 162.78515625 -83.25390625 163.3828125 C-84.959079 165.4749306 -84.959079 165.4749306 -84.6875 168.40625 C-83.4842007 172.12895722 -81.82376079 174.06220706 -79.125 176.875 C-78.29871094 177.74898437 -77.47242188 178.62296875 -76.62109375 179.5234375 C-75.98300781 180.17570313 -75.34492188 180.82796875 -74.6875 181.5 C-75.0175 182.16 -75.3475 182.82 -75.6875 183.5 C-80.51235166 179.54174791 -84.52160746 175.90839975 -87.6875 170.5 C-87.96046006 175.86821459 -88.12105477 179.11925771 -84.6875 183.5 C-83.05913262 185.2041054 -81.39980248 186.88025441 -79.6875 188.5 C-80.0175 189.49 -80.3475 190.48 -80.6875 191.5 C-83.83487182 190.80058404 -86.71338876 189.73921302 -89.6875 188.5 C-87.83833921 192.56815373 -86.02307632 195.5094833 -82.6875 198.5 C-84.8125 198.9375 -84.8125 198.9375 -87.6875 198.5 C-93.47421934 193.84580214 -98.7117348 185.2721017 -100.1875 178.0546875 C-99.43243494 174.19677696 -96.9783906 171.96466181 -94.3125 169.25 C-93.77318848 168.68224854 -93.23387695 168.11449707 -92.67822266 167.52954102 C-88.54608411 163.23296641 -84.20672996 159.24517606 -79.6484375 155.40234375 C-77.70964609 153.52148436 -76.71356094 151.97688903 -75.6875 149.5 C-83.16406481 154.39249863 -89.87307159 159.96221836 -96.5859375 165.828125 C-103.12467583 171.5 -103.12467583 171.5 -105.6875 171.5 C-105.6875 168.5 -105.6875 168.5 -104.4296875 167.09765625 C-103.81351563 166.59105469 -103.19734375 166.08445312 -102.5625 165.5625 C-101.47195313 164.64597656 -101.47195313 164.64597656 -100.359375 163.7109375 C-99.03679687 162.61652344 -99.03679687 162.61652344 -97.6875 161.5 C-95.38806881 159.57158133 -93.09823312 157.63212951 -90.8125 155.6875 C-89.90636963 154.91805054 -89.90636963 154.91805054 -88.98193359 154.13305664 C-85.21110649 150.89954454 -81.6603912 147.55158209 -78.1875 144 C-69.86645901 135.58424798 -69.86645901 135.58424798 -65.46484375 135.4140625 C-63.0625 135.5 -63.0625 135.5 -60.8359375 135.75 C-58.53612921 135.64577836 -58.53612921 135.64577836 -56.40625 133.99609375 C-54.01120533 130.5178357 -54.40674776 127.58305488 -54.8125 123.5625 C-54.90229126 122.42035034 -54.90229126 122.42035034 -54.99389648 121.25512695 C-55.36774636 116.85349526 -55.97595086 112.53799517 -56.75 108.1875 C-59.3664075 92.1694938 -58.23265373 75.76394113 -52.57421875 60.49609375 C-51.47459865 56.78063729 -51.34772441 53.27739236 -51.375 49.4375 C-51.37628906 48.67034668 -51.37757813 47.90319336 -51.37890625 47.11279297 C-51.52224236 38.17041129 -52.92553353 29.39938862 -54.41210938 20.59619141 C-54.6875 18.5 -54.6875 18.5 -54.6875 14.5 C-53.96304688 14.54640625 -53.23859375 14.5928125 -52.4921875 14.640625 C-47.92060929 14.81129725 -44.5394347 14.87863764 -40.3125 13 C-37.97542292 10.77421231 -36.94304463 9.30882107 -35.4375 6.5625 C-32.1647686 0.8670973 -26.58385106 -1.41091576 -20.4375 -3.12890625 C-12.60502109 -4.18584588 -7.15806603 -3.27939304 0 0 Z " fill="#EC995E" transform="translate(358.6875,360.5)"/>
<path d="M0 0 C8.39099655 -0.3820769 16.36310486 1.78536704 22.91796875 7.1484375 C28.76440766 13.03703822 30.94056218 17.84048166 31.91796875 26.1484375 C31.19351563 26.11363281 30.4690625 26.07882813 29.72265625 26.04296875 C21.82500594 25.73358103 21.82500594 25.73358103 14.91796875 29.1484375 C10.68674094 34.14807224 8.1337212 38.46011143 7.91796875 45.1484375 C9.29626068 48.65547737 9.29626068 48.65547737 11.35546875 52.0234375 C16.09083488 60.85463322 16.09083488 60.85463322 15.69140625 65.9140625 C13.93269247 70.99479119 10.25629753 75.01963763 6.91796875 79.1484375 C5.05427139 82.87583223 5.47565336 87.08143367 5.91796875 91.1484375 C6.78418879 93.56054654 6.78418879 93.56054654 7.91796875 95.8984375 C10.75718068 102.15670041 10.26768076 108.40676704 9.91796875 115.1484375 C9.25796875 115.1484375 8.59796875 115.1484375 7.91796875 115.1484375 C7.87671875 115.9734375 7.83546875 116.7984375 7.79296875 117.6484375 C6.34363319 123.44577973 3.01401585 127.55144923 -1.70703125 131.1484375 C-7.86981788 132.97444835 -14.90452538 133.2763344 -21.01953125 131.0234375 C-26.70354251 127.5434306 -30.25967026 122.53616966 -32.08203125 116.1484375 C-32.48276871 112.41038737 -32.45602009 108.71667566 -32.39453125 104.9609375 C-32.39775391 103.99607422 -32.40097656 103.03121094 -32.40429688 102.03710938 C-32.36789579 97.0700158 -32.01005575 92.3839079 -31.06665039 87.50439453 C-30.02234206 81.43316393 -29.88553295 75.64063538 -30.02734375 69.49609375 C-30.05263046 67.31576149 -30.0773528 65.13542261 -30.1015625 62.95507812 C-30.15108995 59.58059131 -30.20711978 56.2064659 -30.27392578 52.83227539 C-30.59771296 35.32099788 -30.67387451 20.74139904 -18.08203125 7.1484375 C-12.27925301 2.09343996 -7.62474888 0.54360311 0 0 Z " fill="#232945" transform="translate(307.08203125,36.8515625)"/>
<path d="M0 0 C2.81009519 1.00875212 3.66697708 1.33395417 5 4 C5.66903756 13.07156461 4.40087294 21.37949198 2.375 30.1875 C1.82396079 32.71784674 1.2772757 35.24914462 0.734375 37.78125 C0.52241989 38.76535103 0.52241989 38.76535103 0.30618286 39.76933289 C-1.26761914 47.13641836 -2.64742467 54.53709392 -3.97381592 61.95230103 C-4.23824558 63.42557209 -4.50611013 64.89823138 -4.77764893 66.37020874 C-7.02558575 78.57526558 -8.47279894 87.85018974 -3.375 99.375 C1.45877156 111.13036431 3.87048236 123.16085318 6.32080078 135.59228516 C7.3557659 140.78496781 8.47543346 145.95664541 9.625 151.125 C9.80699951 151.982146 9.98899902 152.83929199 10.17651367 153.72241211 C11.805406 161.04555918 14.05976657 168.16821804 18.140625 174.51953125 C24.95282819 185.15413734 24.93018771 194.61955934 24 207 C23.34 207.33 22.68 207.66 22 208 C21.67 207.34 21.34 206.68 21 206 C20.13375 207.2065625 20.13375 207.2065625 19.25 208.4375 C17.01873107 210.97866739 16.25543229 211.65120368 13 212 C13.33 210.68 13.66 209.36 14 208 C12.35 208 10.7 208 9 208 C10.30208333 206.53515625 11.60416667 205.0703125 12.90625 203.60546875 C14.28151241 201.910552 14.28151241 201.910552 14 199 C12.02 199 10.04 199 8 199 C8.33 198.01 8.66 197.02 9 196 C10.32 196 11.64 196 13 196 C13.76746531 190.18919122 12.97355534 187.54636149 9.5625 182.75 C8.92441406 181.94046875 8.28632813 181.1309375 7.62890625 180.296875 C5.9575756 176.91413382 5.77741787 175.18970509 5.61694336 171.49804688 C5.1545409 165.15967853 3.6113851 159.70101057 1.5 153.734375 C1.14542725 152.69847229 0.79085449 151.66256958 0.42553711 150.59527588 C-0.70338131 147.3088895 -1.85164202 144.02963664 -3 140.75 C-3.73948162 138.5993707 -4.47777085 136.44833102 -5.21484375 134.296875 C-8.19966388 125.63327312 -11.19730044 116.98671947 -14.54174805 108.45410156 C-14.95517456 107.39096741 -15.36860107 106.32783325 -15.79455566 105.23248291 C-16.57709676 103.23461335 -17.37322202 101.2419829 -18.18615723 99.25628662 C-25.97637499 79.3580581 -20.12409739 54.82153419 -17.51708984 34.14160156 C-17.05177338 30.44904909 -16.62517135 26.75290441 -16.20703125 23.0546875 C-15.97294546 21.09876723 -15.73740863 19.14301973 -15.5 17.1875 C-15.40614014 16.33583252 -15.31228027 15.48416504 -15.21557617 14.60668945 C-14.51340117 9.21263316 -13.07065691 5.51740872 -10 1 C-6.8249479 -0.58752605 -3.46399201 -0.281235 0 0 Z " fill="#EF9B61" transform="translate(333,126)"/>
<path d="M0 0 C9.32646179 7.88885058 18.85605181 16.31727927 25 27 C24.24976563 27.63164062 23.49953125 28.26328125 22.7265625 28.9140625 C10.47889022 39.50038495 2.75188437 51.89976792 -4.87109375 66.06640625 C-6.50251064 69.09576997 -8.12852715 72.10980492 -10 75 C-10.33 75 -10.66 75 -11 75 C-10.36792499 64.86359421 -9.15884502 54.86299861 -7.75 44.8125 C-7.5882579 43.64551575 -7.5882579 43.64551575 -7.42324829 42.45495605 C-5.43853668 28.20149937 -2.94624381 14.08891894 0 0 Z " fill="#DEA5A2" transform="translate(341,369)"/>
<path d="M0 0 C0.66 0.33 1.32 0.66 2 1 C1.835 1.680625 1.67 2.36125 1.5 3.0625 C0.47937919 9.05864725 0.90980665 13.56384089 3.24609375 19.10546875 C4.0192614 21.048403 4.53491266 22.9635496 5 25 C3.31160805 24.91145865 1.62424306 24.80327913 -0.0625 24.6875 C-1.00222656 24.62949219 -1.94195312 24.57148437 -2.91015625 24.51171875 C-6.66971867 23.88908578 -9.55075536 22.60620256 -13 21 C-12.6390625 22.00160156 -12.278125 23.00320313 -11.90625 24.03515625 C-11.43693201 25.3774057 -10.9682139 26.71986501 -10.5 28.0625 C-10.26152344 28.71927734 -10.02304687 29.37605469 -9.77734375 30.05273438 C-8.24345937 34.50099909 -7.75212572 38.23461699 -8 43 C-8.66 43 -9.32 43 -10 43 C-10.39832031 41.21142578 -10.39832031 41.21142578 -10.8046875 39.38671875 C-11.16113217 37.82023825 -11.51792097 36.25383602 -11.875 34.6875 C-12.04902344 33.90181641 -12.22304688 33.11613281 -12.40234375 32.30664062 C-12.57636719 31.54931641 -12.75039063 30.79199219 -12.9296875 30.01171875 C-13.08679199 29.31522217 -13.24389648 28.61872559 -13.40576172 27.90112305 C-13.99513393 25.70265788 -13.99513393 25.70265788 -16 23 C-17.20780664 24.01805148 -18.39076888 25.06562666 -19.5625 26.125 C-20.22378906 26.70507812 -20.88507813 27.28515625 -21.56640625 27.8828125 C-23.271579 29.9749306 -23.271579 29.9749306 -23 32.90625 C-21.7967007 36.62895722 -20.13626079 38.56220706 -17.4375 41.375 C-16.19806641 42.68597656 -16.19806641 42.68597656 -14.93359375 44.0234375 C-14.29550781 44.67570313 -13.65742188 45.32796875 -13 46 C-13.33 46.66 -13.66 47.32 -14 48 C-18.82485166 44.04174791 -22.83410746 40.40839975 -26 35 C-26.27296006 40.36821459 -26.43355477 43.61925771 -23 48 C-21.37163262 49.7041054 -19.71230248 51.38025441 -18 53 C-18.33 53.99 -18.66 54.98 -19 56 C-22.14737182 55.30058404 -25.02588876 54.23921302 -28 53 C-26.15083921 57.06815373 -24.33557632 60.0094833 -21 63 C-23.125 63.4375 -23.125 63.4375 -26 63 C-31.78671934 58.34580214 -37.0242348 49.7721017 -38.5 42.5546875 C-37.74493494 38.69677696 -35.2908906 36.46466181 -32.625 33.75 C-32.08568848 33.18224854 -31.54637695 32.61449707 -30.99072266 32.02954102 C-26.85858411 27.73296641 -22.51922996 23.74517606 -17.9609375 19.90234375 C-16.02214609 18.02148436 -15.02606094 16.47688903 -14 14 C-21.47656481 18.89249863 -28.18557159 24.46221836 -34.8984375 30.328125 C-41.43717583 36 -41.43717583 36 -44 36 C-44 33 -44 33 -42.7421875 31.59765625 C-42.12601563 31.09105469 -41.50984375 30.58445312 -40.875 30.0625 C-40.14796875 29.45148437 -39.4209375 28.84046875 -38.671875 28.2109375 C-37.79015625 27.48132813 -36.9084375 26.75171875 -36 26 C-33.70056881 24.07158133 -31.41073312 22.13212951 -29.125 20.1875 C-28.52091309 19.67453369 -27.91682617 19.16156738 -27.29443359 18.63305664 C-23.52360649 15.39954454 -19.9728912 12.05158209 -16.5 8.5 C-7.31839096 -0.83163534 -7.31839096 -0.83163534 0 0 Z " fill="#2D2E48" transform="translate(297,496)"/>
<path d="M0 0 C2.62357322 2.62357322 1.27466041 9.73398956 1.29516602 13.28857422 C1.30657414 14.66172685 1.32684433 16.03483919 1.35668945 17.40771484 C1.55093384 26.34295657 0.98840723 33.89358002 -3 42 C-3.33 42.33 -3.66 42.66 -4 43 C-6.33944736 42.71269945 -8.6739143 42.38063221 -11 42 C-10.67 43.32 -10.34 44.64 -10 46 C-11.98 46 -13.96 46 -16 46 C-15.67 45.01 -15.34 44.02 -15 43 C-13.95922952 35.06412508 -16.66890881 30.13064801 -20.56640625 23.4296875 C-22.28254757 19.32404151 -22.12833527 17.26589912 -21 13 C-19.73046875 10.453125 -19.73046875 10.453125 -18.1875 8.25 C-17.68605469 7.51265625 -17.18460937 6.7753125 -16.66796875 6.015625 C-11.84876166 0.19194618 -7.15555748 -0.23082443 0 0 Z " fill="#EE9C61" transform="translate(336,62)"/>
<path d="M0 0 C0.66 0.721875 1.32 1.44375 2 2.1875 C7.26522816 7.40810758 12.5593977 10.53496236 20 11 C20 13 20 13 18 15.25 C14.6076287 18.52505586 10.80515553 21.22675106 7 24 C15.91 27.96 15.91 27.96 25 32 C24.67 32.99 24.34 33.98 24 35 C18 32 12 29 6 26 C6 30.29 6 34.58 6 39 C8.39570271 39.1687539 10.79153363 39.33506836 13.1875 39.5 C13.86103516 39.54769531 14.53457031 39.59539063 15.22851562 39.64453125 C18.82636752 39.89023821 22.39372306 40.05601984 26 40 C26 40.66 26 41.32 26 42 C22.93537096 42.89385014 20.18818621 43.13472008 17 43.125 C15.7315625 43.12886719 15.7315625 43.12886719 14.4375 43.1328125 C12.15301056 43.00833711 10.19008426 42.63877457 8 42 C10.54604597 45.52381687 10.54604597 45.52381687 14 48 C16.2072923 48.07092842 18.41667452 48.08415025 20.625 48.0625 C22.40777344 48.04896484 22.40777344 48.04896484 24.2265625 48.03515625 C25.14179688 48.02355469 26.05703125 48.01195312 27 48 C27.495 49.98 27.495 49.98 28 52 C26.02 52.66 24.04 53.32 22 54 C22 54.99 22 55.98 22 57 C23.258125 57.04125 24.51625 57.0825 25.8125 57.125 C26.87404297 57.15980469 26.87404297 57.15980469 27.95703125 57.1953125 C30.31359719 57.13254462 30.31359719 57.13254462 33 55 C32.1875 57.4375 32.1875 57.4375 31 60 C23.44033779 62.5198874 15.26995892 60.8960656 8 58 C4.06825331 54.89321802 3.61757723 50.75292282 3 46 C2.72823101 42.1907347 2.54595409 38.37738178 2.42919922 34.56030273 C2.24575385 29.71786925 1.51571794 25.60827149 0 21 C-1.49983085 23.9996617 -1.23902055 27.11946961 -1.31640625 30.4140625 C-1.33718735 31.14370209 -1.35796844 31.87334167 -1.37937927 32.62509155 C-1.44481917 34.95829763 -1.50373368 37.29161721 -1.5625 39.625 C-1.60569053 41.20574095 -1.64930499 42.78647039 -1.69335938 44.3671875 C-1.80049481 48.24467504 -1.90177782 52.12227685 -2 56 C-2.66 56 -3.32 56 -4 56 C-4.89836083 48.23661922 -5.29446509 40.49566447 -5.5625 32.6875 C-5.60568359 31.55376953 -5.64886719 30.42003906 -5.69335938 29.25195312 C-5.81602323 25.8348887 -5.912898 22.41814508 -6 19 C-6.03786621 17.80044678 -6.07573242 16.60089355 -6.11474609 15.36499023 C-6.13746582 14.20555908 -6.16018555 13.04612793 -6.18359375 11.8515625 C-6.2086499 10.80693848 -6.23370605 9.76231445 -6.25952148 8.68603516 C-5.97793714 5.77165045 -5.54055362 4.72983951 -3.5 2.6875 C-2.2625 1.8521875 -2.2625 1.8521875 -1 1 C-1.07734375 2.29357422 -1.07734375 2.29357422 -1.15625 3.61328125 C-0.98261145 7.37689687 -0.05694173 9.77520271 1.5 13.1875 C4 18.70833333 4 18.70833333 4 22 C5.46300982 21.06981474 6.92025579 20.13055973 8.375 19.1875 C9.18710937 18.66542969 9.99921875 18.14335938 10.8359375 17.60546875 C13.23350241 16.01562803 13.23350241 16.01562803 15 13 C13.989375 12.79375 12.97875 12.5875 11.9375 12.375 C7.40213273 11.07258292 4.06990843 8.5569194 1 5 C0.0625 2.125 0.0625 2.125 0 0 Z " fill="#2D2F49" transform="translate(310,549)"/>
<path d="M0 0 C5.61 0.33 11.22 0.66 17 1 C17.92872165 8.7593196 18.21725307 16.42854468 18.24023438 24.2421875 C18.25005262 26.26081886 18.28123729 28.27847614 18.3125 30.296875 C18.31765625 31.5859375 18.3228125 32.875 18.328125 34.203125 C18.34214355 35.94577637 18.34214355 35.94577637 18.35644531 37.72363281 C17.957708 41.38873883 16.82504915 43.82333029 15 47 C13.68 46.67 12.36 46.34 11 46 C6.35524118 30.82073664 2.91155593 15.60130192 0 0 Z " fill="#EC9960" transform="translate(287,168)"/>
<path d="M0 0 C3.46016289 1.96434092 6.10798744 4.20376187 9.01953125 6.91015625 C9.98632812 7.79960937 10.953125 8.6890625 11.94921875 9.60546875 C12.67367187 10.32476562 13.398125 11.0440625 14.14453125 11.78515625 C14.14453125 12.11515625 14.14453125 12.44515625 14.14453125 12.78515625 C9.85786389 12.85978353 5.57154918 12.91398133 1.28442383 12.94995117 C-0.17137243 12.96495938 -1.62712407 12.98537258 -3.08276367 13.01147461 C-5.18549664 13.04821301 -7.2876276 13.06496185 -9.390625 13.078125 C-11.28373413 13.10169067 -11.28373413 13.10169067 -13.21508789 13.12573242 C-18.07883309 12.67070428 -21.50263639 10.96157243 -25.85546875 8.78515625 C-24.80438582 5.72504138 -23.90087161 4.81319541 -21.09765625 3.08203125 C-7.47045051 -3.1782628 -7.47045051 -3.1782628 0 0 Z " fill="#6E1A2D" transform="translate(271.85546875,354.21484375)"/>
<path d="M0 0 C-0.53625 0.598125 -1.0725 1.19625 -1.625 1.8125 C-4.41283995 5.55407467 -6.38143452 9.49269842 -8.4375 13.671875 C-10 16 -10 16 -12.1875 16.828125 C-12.785625 16.88484375 -13.38375 16.9415625 -14 17 C-13.67 15.68 -13.34 14.36 -13 13 C-20.47656481 17.89249863 -27.18557159 23.46221836 -33.8984375 29.328125 C-40.43717583 35 -40.43717583 35 -43 35 C-43 32 -43 32 -41.7421875 30.59765625 C-41.12601563 30.09105469 -40.50984375 29.58445312 -39.875 29.0625 C-39.14796875 28.45148437 -38.4209375 27.84046875 -37.671875 27.2109375 C-36.79015625 26.48132813 -35.9084375 25.75171875 -35 25 C-32.70056903 23.07158151 -30.41062643 21.13225496 -28.125 19.1875 C-27.22104492 18.41913818 -27.22104492 18.41913818 -26.29882812 17.63525391 C-21.65701612 13.65173979 -17.32872056 9.46790243 -13.0859375 5.05859375 C-8.61349212 0.64477593 -6.42417874 -0.3706257 0 0 Z " fill="#2D2F49" transform="translate(296,497)"/>
<path d="M0 0 C2.60574338 1.12145918 5.20959056 2.24699797 7.8125 3.375 C8.55048828 3.69210937 9.28847656 4.00921875 10.04882812 4.3359375 C10.76103516 4.6453125 11.47324219 4.9546875 12.20703125 5.2734375 C12.8616333 5.55622559 13.51623535 5.83901367 14.19067383 6.13037109 C16 7 16 7 19 9 C19.66 8.67 20.32 8.34 21 8 C21 10.31 21 12.62 21 15 C16.95353897 16.01730915 13.45985647 15.97494798 9.3125 15.625 C8.17425781 15.53476562 7.03601563 15.44453125 5.86328125 15.3515625 C3 15 3 15 1 14 C0.5859375 10.83984375 0.5859375 10.83984375 0.375 6.9375 C0.30023438 5.64714844 0.22546875 4.35679687 0.1484375 3.02734375 C0.09945313 2.02832031 0.05046875 1.02929688 0 0 Z " fill="#E1915A" transform="translate(315,574)"/>
<path d="M0 0 C0.66 0.33 1.32 0.66 2 1 C2.7840548 3.39950357 3.45326762 5.74362106 4.0625 8.1875 C4.23587891 8.84814453 4.40925781 9.50878906 4.58789062 10.18945312 C6.619602 18.07498423 6.619602 18.07498423 7 22 C5.0625 24.375 5.0625 24.375 3 26 C-1.34036364 21.30606741 -5.30599448 16.83701196 -8 11 C-7.66145542 7.36964965 -6.02759723 5.6988192 -3.4375 3.25 C-2.79683594 2.63640625 -2.15617187 2.0228125 -1.49609375 1.390625 C-1.00238281 0.93171875 -0.50867188 0.4728125 0 0 Z " fill="#EC9B61" transform="translate(281,518)"/>
<path d="M0 0 C3.81035094 5.71552641 5.55570361 13.1463221 5 20 C0.53202662 18.60121198 -3.63822079 16.86369228 -7.875 14.875 C-9.02742188 14.33617187 -10.17984375 13.79734375 -11.3671875 13.2421875 C-12.67042969 12.62730469 -12.67042969 12.62730469 -14 12 C-11.48848971 9.9874375 -8.9746431 7.98020925 -6.4375 6 C-4.14040161 4.11520132 -2.06106962 2.13740553 0 0 Z " fill="#E2925B" transform="translate(330,561)"/>
<path d="M0 0 C0.969375 0.309375 1.93875 0.61875 2.9375 0.9375 C6.63548344 2.01670741 10.24752024 2.39225613 14.08203125 2.65625 C16 3 16 3 18 5 C16.7766714 6.73330182 15.54604266 8.46145233 14.3125 10.1875 C13.62800781 11.15042969 12.94351562 12.11335937 12.23828125 13.10546875 C10.01167004 15.98490838 7.62581471 18.48455228 5 21 C4.35269196 18.43786446 3.70710712 15.87531515 3.0625 13.3125 C2.88009766 12.59126953 2.69769531 11.87003906 2.50976562 11.12695312 C1.58174093 7.43172752 0.70201539 3.74654531 0 0 Z " fill="#EB9B62" transform="translate(284,517)"/>
<path d="M0 0 C1.18596673 1.7789501 2.35830593 3.56731772 3.5 5.375 C7.06580921 9.11909967 11.32637086 10.9040022 16 13 C14.65194669 16.15444475 13.32292677 17.81222823 10.5 19.75 C9.8915625 20.17796875 9.283125 20.6059375 8.65625 21.046875 C7 22 7 22 5 22 C4.18309823 19.77236012 3.37138128 17.5430514 2.5625 15.3125 C2.21735352 14.37374023 2.21735352 14.37374023 1.86523438 13.41601562 C-1.43076712 4.29230135 -1.43076712 4.29230135 0 0 Z " fill="#DE8F59" transform="translate(309,549)"/>
<path d="M0 0 C0.66 0 1.32 0 2 0 C1.96519531 1.16015625 1.96519531 1.16015625 1.9296875 2.34375 C1.82071094 8.63325438 2.14873907 13.98340199 4 20 C-1.71278721 20.34976248 -4.9413912 19.31372143 -10 17 C-8.71275182 14.53926045 -7.42044687 12.08141829 -6.125 9.625 C-5.76019531 8.92632812 -5.39539063 8.22765625 -5.01953125 7.5078125 C-2.2265625 2.2265625 -2.2265625 2.2265625 0 0 Z " fill="#E59760" transform="translate(294,498)"/>
<path d="M0 0 C0.53625 0.680625 1.0725 1.36125 1.625 2.0625 C3.44090148 4.30848341 5.26588366 6.54002101 7.125 8.75 C7.62257813 9.34296875 8.12015625 9.9359375 8.6328125 10.546875 C9.9579498 12.12271444 9.9579498 12.12271444 12 13 C11.1875 14.9375 11.1875 14.9375 10 17 C9.01 17.33 8.02 17.66 7 18 C5.2109375 16.890625 5.2109375 16.890625 3.375 15.25 C2.76398438 14.71890625 2.15296875 14.1878125 1.5234375 13.640625 C-1.85632493 10.00088084 -1.14974576 5.64211845 -1 1 C-0.67 0.67 -0.34 0.34 0 0 Z " fill="#E99961" transform="translate(271,530)"/>
<path d="M0 0 C5.94 0 11.88 0 18 0 C18.33 1.98 18.66 3.96 19 6 C14.16299065 7.33510213 8.67429371 8.45969596 4.08203125 5.953125 C2.4375 4.625 2.4375 4.625 0 2 C0 1.34 0 0.68 0 0 Z " fill="#E09159" transform="translate(318,591)"/>
<path d="M0 0 C0.99 1.0828125 0.99 1.0828125 2 2.1875 C7.26522816 7.40810758 12.5593977 10.53496236 20 11 C20 13 20 13 17.9375 15.3125 C14.77179282 18.2087853 11.53438967 20.57443846 8 23 C7.34 22.34 6.68 21.68 6 21 C6.56589844 20.59007812 7.13179688 20.18015625 7.71484375 19.7578125 C8.44832031 19.21898437 9.18179687 18.68015625 9.9375 18.125 C11.03384766 17.32449219 11.03384766 17.32449219 12.15234375 16.5078125 C14.11098235 15.11987896 14.11098235 15.11987896 15 13 C13.989375 12.79375 12.97875 12.5875 11.9375 12.375 C7.40213273 11.07258292 4.06990843 8.5569194 1 5 C0.0625 2.125 0.0625 2.125 0 0 Z " fill="#3F3848" transform="translate(310,549)"/>
<path d="M0 0 C0.99 0 1.98 0 3 0 C3.96091743 4.10751875 4.92117619 8.2151908 5.88085938 12.32299805 C6.2065305 13.7165937 6.53237277 15.11014936 6.85839844 16.50366211 C7.01598633 17.17727783 7.17357422 17.85089355 7.3359375 18.54492188 C7.4919342 19.21157867 7.64793091 19.87823547 7.80865479 20.56509399 C8.26603463 22.52684209 8.7185074 24.48973218 9.17089844 26.45263672 C9.67513451 28.61004252 10.19506017 30.76396432 10.74316406 32.91064453 C11.2451723 34.92149775 11.63770146 36.95934258 12 39 C11.34 39.66 10.68 40.32 10 41 C9.86948242 40.4423999 9.73896484 39.8847998 9.60449219 39.31030273 C7.14837928 28.84171292 4.64607893 18.40048399 1.796875 8.03125 C1.09560699 5.3636815 0.50568813 2.71048837 0 0 Z " fill="#B45054" transform="translate(284,167)"/>
<path d="M0 0 C0.680625 0.556875 1.36125 1.11375 2.0625 1.6875 C1.0625 3.6875 1.0625 3.6875 -0.9375 5.6875 C-3.69122909 6.05683645 -6.14115661 5.87086678 -8.9375 5.6875 C-9.2675 4.3675 -9.5975 3.0475 -9.9375 1.6875 C-3.66057692 -1.63557692 -3.66057692 -1.63557692 0 0 Z " fill="#D88D5A" transform="translate(340.9375,601.3125)"/>
<path d="M0 0 C3.11259604 0.345844 4.82872813 0.87379967 7.375 2.75 C9 5 9 5 8.75 7.75 C8.5025 8.4925 8.255 9.235 8 10 C4.49285949 8.10424837 2.05538941 6.46170848 0 3 C0 2.01 0 1.02 0 0 Z " fill="#E69862" transform="translate(269,549)"/>
<path d="M0 0 C1.57043101 0.01330874 3.14079971 0.03717648 4.7109375 0.0703125 C5.51273437 0.07933594 6.31453125 0.08835937 7.140625 0.09765625 C9.12252273 0.12125027 11.10426731 0.15712185 13.0859375 0.1953125 C13.0859375 0.8553125 13.0859375 1.5153125 13.0859375 2.1953125 C7.03526508 3.95601625 0.16256869 3.81574748 -5.9140625 2.1953125 C-3.9140625 0.1953125 -3.9140625 0.1953125 0 0 Z " fill="#473C48" transform="translate(322.9140625,588.8046875)"/>
<path d="M0 0 C5.99932374 1.8331267 11.44920563 4.07321751 17 7 C16.67 7.99 16.34 8.98 16 10 C14.78763672 9.38511719 14.78763672 9.38511719 13.55078125 8.7578125 C12.48214844 8.21898437 11.41351563 7.68015625 10.3125 7.125 C9.25675781 6.59132813 8.20101563 6.05765625 7.11328125 5.5078125 C4.44004095 4.21311895 1.7728867 3.05976746 -1 2 C-0.67 1.34 -0.34 0.68 0 0 Z " fill="#3F3848" transform="translate(318,574)"/>
<path d="M0 0 C5.75 -0.125 5.75 -0.125 8 1 C7.34 5.62 6.68 10.24 6 15 C5.34 14.67 4.68 14.34 4 14 C3.9727585 12.58344207 3.95349533 11.16672955 3.9375 9.75 C3.92589844 8.96109375 3.91429687 8.1721875 3.90234375 7.359375 C3.99614694 5.09308998 4.36758937 3.1711105 5 1 C3.35 1 1.7 1 0 1 C0 0.67 0 0.34 0 0 Z " fill="#5B4A52" transform="translate(291,496)"/>
<path d="M0 0 C3.0636276 5.68959411 4.25956379 10.51090534 4 17 C3.34 17 2.68 17 2 17 C1.46585888 15.10787298 0.94821671 13.21108364 0.4375 11.3125 C0.14746094 10.25675781 -0.14257812 9.20101562 -0.44140625 8.11328125 C-1.00124767 4.99304618 -0.84690764 3.02306766 0 0 Z " fill="#473D4A" transform="translate(285,522)"/>
<path d="M0 0 C0.41894531 0.57621094 0.83789062 1.15242187 1.26953125 1.74609375 C3.53271865 4.69385702 6.04906429 7.37383539 8.57421875 10.09765625 C10 12 10 12 10 15 C8.70450101 13.90033225 7.41373929 12.79508199 6.125 11.6875 C5.40570313 11.07261719 4.68640625 10.45773437 3.9453125 9.82421875 C1.39215807 7.42999562 0.04061739 5.87327397 -0.125 2.3125 C-0.08375 1.549375 -0.0425 0.78625 0 0 Z " fill="#403949" transform="translate(273,529)"/>
<path d="M0 0 C0.66666667 1.33333333 1.33333333 2.66666667 2 4 C2.53625 5.03125 3.0725 6.0625 3.625 7.125 C5 10 5 10 5 12 C1.37 11.67 -2.26 11.34 -6 11 C-6 10.67 -6 10.34 -6 10 C-3.69 10 -1.38 10 1 10 C0.84402344 9.44570313 0.68804687 8.89140625 0.52734375 8.3203125 C0.33269531 7.59585938 0.13804687 6.87140625 -0.0625 6.125 C-0.35833984 5.04605469 -0.35833984 5.04605469 -0.66015625 3.9453125 C-1 2 -1 2 0 0 Z " fill="#413949" transform="translate(297,509)"/>
<path d="M0 0 C0.66 0.33 1.32 0.66 2 1 C-0.97982006 5.23448114 -3.98682507 9.32894169 -9 11 C-9 8 -9 8 -7.28515625 6.2109375 C-6.18494141 5.30214844 -6.18494141 5.30214844 -5.0625 4.375 C-4.33160156 3.76398437 -3.60070312 3.15296875 -2.84765625 2.5234375 C-2.23792969 2.02070312 -1.62820313 1.51796875 -1 1 C-0.67 0.67 -0.34 0.34 0 0 Z " fill="#37364F" transform="translate(262,521)"/>
<path d="M0 0 C0.99 0 1.98 0 3 0 C4.5912689 4.873261 5.21192221 8.80790596 5 14 C2.81385576 11.81385576 2.31743465 10.46120051 1.375 7.5625 C1.11460937 6.78003906 0.85421875 5.99757812 0.5859375 5.19140625 C0 3 0 3 0 0 Z " fill="#A13443" transform="translate(284,167)"/>
<path d="M0 0 C2.5 2.3125 2.5 2.3125 5 5 C5 5.99 5 6.98 5 8 C2.5 5.6875 2.5 5.6875 0 3 C0 2.01 0 1.02 0 0 Z " fill="#373447" transform="translate(310,549)"/>
</svg>
